<svg width="32" height="32" viewBox="0 0 32 32" fill="none" xmlns="http://www.w3.org/2000/svg"><path d="M16 3C8.82 3 3 8.82 3 16C3 23.18 8.82 29 16 29C23.18 29 29 23.18 29 16C29 8.82 23.18 3 16 3ZM16 27C10.486 27 6 22.514 6 17C6 11.486 10.486 7 16 7C21.514 7 26 11.486 26 17C26 22.514 21.514 27 16 27Z" fill="black"/><circle cx="16" cy="16" r="3" fill="black"/><path d="M16 7V2" stroke="black" stroke-width="2" stroke-linecap="round"/><path d="M16 25V30" stroke="black" stroke-width="2" stroke-linecap="round"/><path d="M22.0713 9.92896L25.5358 6.46448" stroke="black" stroke-width="2" stroke-linecap="round"/><path d="M6.46484 25.5356L9.92932 22.0711" stroke="black" stroke-width="2" stroke-linecap="round"/><path d="M9.92871 9.92896L6.46423 6.46448" stroke="black" stroke-width="2" stroke-linecap="round"/><path d="M25.5352 25.5356L22.0707 22.0711" stroke="black" stroke-width="2" stroke-linecap="round"/></svg>
